<svg xmlns="http://www.w3.org/2000/svg" width="1024" height="1024" viewBox="0 0 1024 1024">
  <defs>
    <filter id="paper"><feTurbulence type="fractalNoise" baseFrequency=".7" numOctaves="3" seed="38" result="n"/><feComponentTransfer in="n"><feFuncA type="table" tableValues="0 .035"/></feComponentTransfer><feBlend in="SourceGraphic" mode="multiply"/></filter>
    <filter id="ink" x="-10%" y="-10%" width="120%" height="120%"><feTurbulence type="fractalNoise" baseFrequency=".019 .08" numOctaves="2" seed="14" result="n"/><feDisplacementMap in="SourceGraphic" in2="n" scale="2.3"/></filter>
  </defs>
  <rect width="1024" height="1024" fill="#F4EFE5" filter="url(#paper)"/>
  <g fill="none" stroke="#C83A2B" stroke-linecap="round" stroke-linejoin="round" filter="url(#ink)">
    <path d="M380 546 C378 465 433 403 514 402 C599 402 652 466 645 550 C638 633 585 677 506 674 C425 672 383 626 380 546 Z" fill="#C83A2B" stroke-width="7"/>
    <path d="M511 402 C509 373 516 350 536 331" stroke-width="13"/>
    <path d="M527 354 C555 320 592 310 623 329 C606 371 568 385 527 372 Z" fill="#C83A2B" stroke-width="6"/>
    <path d="M419 520 C468 498 557 498 608 521 M411 561 C467 539 565 541 615 565 M432 605 C482 588 552 589 593 607" stroke="#F4EFE5" stroke-width="8"/>
    <circle cx="464" cy="457" r="5" fill="#F4EFE5" stroke="none"/><circle cx="568" cy="457" r="4" fill="#F4EFE5" stroke="none"/>
  </g>
</svg>